<?xml version="1.0" standalone="no"?>
<!DOCTYPE svg PUBLIC "-//W3C//DTD SVG 20010904//EN"
 "http://www.w3.org/TR/2001/REC-SVG-20010904/DTD/svg10.dtd">
<svg version="1.0" xmlns="http://www.w3.org/2000/svg"
 width="300.000000pt" height="300.000000pt" viewBox="0 0 300.000000 300.000000"
 preserveAspectRatio="xMidYMid meet">
<metadata>
Created by potrace 1.14, written by Peter Selinger 2001-2017
</metadata>
<g transform="translate(0.000000,300.000000) scale(0.100000,-0.100000)"
fill="#000000" stroke="none">
<path d="M0 1500 l0 -1500 1500 0 1500 0 0 1500 0 1500 -1500 0 -1500 0 0
-1500z m1645 622 c75 -38 136 -118 151 -197 4 -25 17 -47 38 -64 104 -87 168
-197 188 -323 11 -70 15 -79 40 -89 47 -19 115 -101 132 -160 21 -70 20 -117
-4 -181 -36 -98 -148 -178 -248 -178 -54 0 -136 26 -169 54 l-29 24 -59 -20
c-94 -32 -194 -35 -298 -8 -82 20 -90 21 -107 5 -27 -24 -115 -55 -158 -55
-151 0 -282 128 -282 275 0 85 68 203 139 239 23 12 28 24 39 92 20 129 81
235 184 321 30 25 46 48 54 77 26 99 98 176 193 207 44 14 152 4 196 -19z"/>
<path d="M1190 1818 c-95 -92 -140 -178 -156 -296 l-7 -52 55 6 c163 19 308
-111 308 -278 0 -42 -31 -131 -55 -157 -14 -16 -13 -19 9 -29 47 -21 147 -35
214 -29 68 6 166 34 159 46 -55 101 -67 172 -43 255 36 122 164 207 289 193
l49 -6 -6 51 c-16 115 -61 204 -151 292 l-50 49 -11 -40 c-28 -96 -85 -161
-171 -193 -99 -37 -204 -17 -280 53 -50 46 -71 81 -87 145 l-11 44 -55 -54z"/>
</g>
</svg>
